<svg xmlns="http://www.w3.org/2000/svg" width="24" height="24" viewBox="0 0 24 24" fill="none"
    stroke="currentColor" stroke-width="2" stroke-linecap="round" stroke-linejoin="round">
    <path
        d="M12 2a10 10 0 0 0-3.16 19.5c.5.08.66-.23.66-.5v-1.69c-2.88.62-3.5-1.4-3.5-1.4-.47-1.19-1.14-1.5-1.14-1.5-.93-.64.07-.62.07-.62 1.03.07 1.57 1.06 1.57 1.06.91 1.56 2.39 1.11 2.97.85.09-.66.35-1.11.64-1.36-2.22-.25-4.55-1.11-4.55-4.94 0-1.09.39-1.98 1.03-2.68-.1-.25-.45-1.27.1-2.64 0 0 .84-.27 2.75 1.02.8-.22 1.65-.33 2.5-.33.85 0 1.7.11 2.5.33 1.91-1.29 2.75-1.02 2.75-1.02.55 1.37.2 2.39.1 2.64.64.7 1.03 1.59 1.03 2.68 0 3.84-2.34 4.69-4.57 4.93.36.31.68.92.68 1.85l-.01 2.75c0 .27.16.58.67.5A10 10 0 0 0 12 2z"></path>
</svg>